<svg width="547" height="538" viewBox="0 0 547 538" fill="none" xmlns="http://www.w3.org/2000/svg">
<ellipse cx="273.5" cy="503" rx="220.5" ry="26" fill="#CBD4DF"/>
<ellipse cx="273.5" cy="492" rx="273.5" ry="12" fill="#444242"/>
<ellipse cx="270.5" cy="401.5" rx="117.5" ry="92.5" fill="#444242"/>
<ellipse cx="273.5" cy="216" rx="195.5" ry="154" fill="#444242"/>
<path d="M188 86.5C188 121.018 160.018 149 125.5 149C90.9822 149 63 121.018 63 86.5C63 51.9822 90.9822 24 125.5 24C160.018 24 188 51.9822 188 86.5Z" fill="#444242"/>
<path d="M174.126 97.1283C170.982 118.374 147.768 132.539 122.275 128.767C96.782 124.995 78.6644 104.714 81.808 83.4685C84.9516 62.2229 108.166 48.0579 133.659 51.8299C159.152 55.602 177.269 75.8828 174.126 97.1283Z" fill="white"/>
<path d="M469.791 43.4161C494.621 67.3942 495.312 106.961 471.334 131.791C447.356 156.621 407.789 157.312 382.959 133.334C358.129 109.356 357.438 69.7888 381.416 44.9587C405.394 20.1287 444.961 19.4381 469.791 43.4161Z" fill="#444242"/>
<path d="M467.799 60.7795C480.898 77.7993 474.961 104.338 454.539 120.056C434.117 135.774 406.942 134.718 393.843 117.698C380.744 100.679 386.681 74.1397 407.103 58.422C427.525 42.7043 454.699 43.7598 467.799 60.7795Z" fill="white"/>
<ellipse cx="273.5" cy="225" rx="167.5" ry="142" fill="white"/>
<ellipse cx="270.5" cy="413.5" rx="55.5" ry="80.5" fill="white"/>
<rect x="201.367" y="349" width="102.606" height="53.6739" rx="26.837" transform="rotate(64.3069 201.367 349)" fill="#444242"/>
<rect x="382.433" y="369.928" width="102.606" height="53.6739" rx="26.837" transform="rotate(112.949 382.433 369.928)" fill="#444242"/>
<ellipse cx="166.579" cy="456.63" rx="50.171" ry="38.0235" transform="rotate(58.6399 166.579 456.63)" fill="#444242"/>
<ellipse cx="171.168" cy="462.249" rx="32.7557" ry="24.1828" transform="rotate(57.4811 171.168 462.249)" fill="white"/>
<ellipse cx="370.402" cy="456.633" rx="50.171" ry="38.0235" transform="rotate(121.629 370.402 456.633)" fill="#444242"/>
<ellipse cx="367.479" cy="463.273" rx="32.7558" ry="24.1828" transform="rotate(120.47 367.479 463.273)" fill="white"/>
<path d="M273 289C273 289 268.867 275.144 266.887 270.747C264.907 266.351 256 257.55 256 257.55L273 256L290 257.55C290 257.55 283.504 261.834 278.252 270.494C273 279.155 273 289 273 289Z" fill="#444242"/>
</svg>
